<?xml version="1.0" encoding="utf-8"?>
<!-- Generator: Adobe Illustrator 18.1.1, SVG Export Plug-In . SVG Version: 6.00 Build 0)  -->
<svg version="1.1" id="Layer_1" xmlns="http://www.w3.org/2000/svg" xmlns:xlink="http://www.w3.org/1999/xlink" x="0px" y="0px"
	 viewBox="0 0 400 400" enable-background="new 0 0 400 400" xml:space="preserve">
<g id="XMLID_1_">
	<g>
		<path fill="#9FA0FF" d="M248.3,106.4l0.2,2.5l-26.4-0.1c-15.8,0-28.6,10.9-28.6,24.3s12.8,24.3,28.6,24.3h0.5h14.1
			c-11.5,14.6-29.6,24-49.8,24h-1.1H27.4c1-15,3.9-29.5,8.5-43.2c7-20.9,17.9-40.1,31.9-56.6c7.1-8.3,15-16,23.5-22.9l96-0.3
			C217.1,58.5,242,79.1,248.3,106.4L248.3,106.4z"/>
		<path fill="#EAE8FF" d="M367.1,157.5c2.4,11.4,3.7,23.3,3.7,35.4c0,16.5-2.3,32.5-6.7,47.6l-0.1,0h-74.7h-1.1
			c-33.3,0-60.5,26.1-60.5,58c0,23.9,15.1,44.6,36.7,53.4v0c-20.2,8.3-42.3,12.9-65.5,12.9c-69,0-128.5-40.6-155.8-99.3l80-0.1
			l92.3,0.1c16.1,0,29-11.1,29-25c0-13.9-13.1-25-29.2-25h-0.5H91H29l-0.5,0.1c-1-7.4-1.5-15-1.5-22.6c0-3.8,0.1-7.6,0.4-11.4h158.4
			h1.1c20.2,0,38.3-9.4,49.8-24H345h22L367.1,157.5z"/>
		<path fill="#B0D7FF" d="M248.5,108.9L313,109v0.5h36l0.2-0.1c8.3,14.8,14.4,31,18,48.1l-0.1,0h-22H236.7h-14.1h-0.5
			c-15.8,0-28.6-10.9-28.6-24.3s12.8-24.3,28.6-24.3L248.5,108.9z"/>
		<path fill="#9FA0FF" d="M364,240.5l0.1,0c-14.5,50.5-51.6,91.5-99.7,111.3v0c-21.6-8.8-36.7-29.5-36.7-53.4
			c0-31.9,27.2-58,60.5-58h1.1H364z"/>
		<path fill="#EAE8FF" d="M313,109l-64.5-0.1l-0.2-2.5v0c-6.3-27.3-31.1-47.8-60.9-47.8l-96,0.3C120.8,35.2,158.2,21,198.9,21
			c64.6,0,120.9,35.7,150.3,88.4l-0.2,0.1h-36V109z"/>
		<path fill="#B0D7FF" d="M244.3,240.5c0,13.9-12.9,25-29,25l-92.3-0.1l-80,0.1c-7.3-15.5-12.3-32.3-14.6-50l0.5-0.1h62h123.6h0.5
			C231.2,215.5,244.3,226.6,244.3,240.5z"/>
	</g>
	<g>
		<path fill="none" stroke="#000000" stroke-miterlimit="10" d="M367.1,157.5c2.4,11.4,3.7,23.3,3.7,35.4c0,16.5-2.3,32.5-6.7,47.6
			c-14.5,50.5-51.6,91.5-99.7,111.3c-20.2,8.3-42.3,12.9-65.5,12.9c-69,0-128.5-40.6-155.8-99.3c-7.3-15.5-12.3-32.3-14.6-50
			c-1-7.4-1.5-15-1.5-22.6c0-3.8,0.1-7.6,0.4-11.4c1-15,3.9-29.5,8.5-43.2c7-20.9,17.9-40.1,31.9-56.6c7.1-8.3,15-16,23.5-22.9
			C120.8,35.2,158.2,21,198.9,21c64.6,0,120.9,35.7,150.3,88.4C357.4,124.2,363.5,140.4,367.1,157.5z"/>
		<path fill="none" stroke="#000000" stroke-miterlimit="10" d="M313.1,109L313.1,109l-64.6-0.1l-26.4-0.1
			c-15.8,0-28.6,10.9-28.6,24.3s12.8,24.3,28.6,24.3h0.5h14.1H345"/>
		<path fill="none" stroke="#000000" stroke-miterlimit="10" d="M264.5,351.8c-21.6-8.8-36.7-29.5-36.7-53.4c0-31.9,27.2-58,60.5-58
			h1.1H364"/>
		<path fill="none" stroke="#000000" stroke-miterlimit="10" d="M236.7,157.5c-11.5,14.6-29.6,24-49.8,24h-1.1H27.4H27"/>
		<path fill="none" stroke="#000000" stroke-miterlimit="10" d="M248.3,106.4c0.1,0.4,0.2,0.9,0.3,1.3"/>
		<path fill="none" stroke="#000000" stroke-miterlimit="10" d="M91,58.8h0.4l96-0.3c29.8,0,54.6,20.5,60.9,47.8"/>
		<path fill="none" stroke="#000000" stroke-miterlimit="10" d="M123.1,265.4l92.3,0.1c16.1,0,29-11.1,29-25c0-13.9-13.1-25-29.2-25
			h-0.5H91"/>
		<line fill="none" stroke="#000000" stroke-miterlimit="10" x1="91" y1="215.5" x2="29" y2="215.5"/>
		<line fill="none" stroke="#000000" stroke-miterlimit="10" x1="123.1" y1="265.4" x2="43.1" y2="265.5"/>
		<line fill="none" stroke="#000000" stroke-miterlimit="10" x1="345" y1="157.5" x2="367" y2="157.5"/>
		<line fill="none" stroke="#000000" stroke-miterlimit="10" x1="313" y1="109.5" x2="349" y2="109.5"/>
		<polyline fill="none" stroke="#000000" stroke-miterlimit="10" points="248.3,106.3 248.3,106.4 248.5,108.9 248.6,109.5 		"/>
	</g>
</g>
</svg>
